<?xml version="1.0" standalone="no"?><!DOCTYPE svg PUBLIC "-//W3C//DTD SVG 1.1//EN" "http://www.w3.org/Graphics/SVG/1.1/DTD/svg11.dtd"><svg t="1547771450032" class="icon" style="" viewBox="0 0 1024 1024" version="1.1" xmlns="http://www.w3.org/2000/svg" p-id="33224" xmlns:xlink="http://www.w3.org/1999/xlink" width="200" height="200"><defs><style type="text/css"></style></defs><path d="M294.3 648.2c13.1 0 25.5 5.1 34.8 14.4 8.9 8.9 13.8 20.7 13.8 33.1l-0.3 168.6c0 26.1-21.8 47.4-48.5 47.4-2.5 0-5-0.2-7.6-0.6l-44.3-6.6c-11.6-1.7-22.2-7.5-29.7-16.2-7.5-8.6-11.6-19.5-11.6-30.8l0.3-155.5c0-11.3 4.2-22.2 11.7-30.7 7.6-8.7 18.2-14.4 29.8-16.1l44.4-6.5c2.2-0.3 4.7-0.5 7.2-0.5m0-40c-4.3 0-8.7 0.3-13.2 1l-44.4 6.5c-43.4 6.3-75.6 43.1-75.7 86.3l-0.3 155.5c-0.1 43.3 32 80.1 75.4 86.6l44.3 6.6c4.5 0.7 9 1 13.5 1 48 0 88.4-38.4 88.5-87.3l0.3-168.6c0.2-49-40.3-87.6-88.4-87.6zM736.9 649.1c2.5 0 5 0.2 7.6 0.6l44.3 6.6c11.6 1.7 22.2 7.5 29.7 16.2 7.5 8.6 11.6 19.5 11.6 30.8l-0.3 155.5c0 11.3-4.2 22.2-11.7 30.7-7.6 8.7-18.2 14.4-29.8 16.1l-44.4 6.5c-2.5 0.4-4.9 0.5-7.4 0.5-13.1 0-25.5-5.1-34.8-14.4-8.9-8.9-13.8-20.7-13.8-33.1l0.3-168.6c0.2-26.2 22-47.4 48.7-47.4m0-40c-48 0-88.4 38.4-88.5 87.3l-0.3 168.6c-0.1 49 40.4 87.6 88.5 87.6 4.3 0 8.7-0.3 13.2-1l44.4-6.5c43.4-6.3 75.6-43.1 75.7-86.3l0.3-155.5c0.1-43.3-32-80.1-75.4-86.6l-44.3-6.6c-4.7-0.7-9.2-1-13.6-1z" fill="#707070" p-id="33225"></path><path d="M934.1 796.7c-11 0-20-9-20-20V486.5c0-53.6-10.5-105.7-31.3-154.6-20-47.3-48.8-89.8-85.3-126.3-36.6-36.5-79.2-65.1-126.6-85.2-49.1-20.7-101.2-31.2-155-31.2s-105.9 10.5-155 31.2c-47.4 20-90 48.7-126.6 85.2-36.6 36.5-65.3 79-85.3 126.3-20.8 49-31.3 101-31.3 154.6v290.1c0 11-9 20-20 20s-20-9-20-20V486.5c0-59 11.6-116.3 34.4-170.2 22.1-52.1 53.7-98.8 93.9-139 40.2-40.1 87.1-71.7 139.3-93.7 54-22.8 111.4-34.4 170.5-34.4 59.1 0 116.5 11.6 170.5 34.4 52.2 22 99 53.5 139.3 93.7 40.2 40.2 71.8 86.9 93.9 139 22.9 53.9 34.4 111.2 34.4 170.2v290.1c0.2 11.1-8.7 20.1-19.8 20.1z" fill="#707070" p-id="33226"></path></svg>