<?xml version="1.0" standalone="no"?><!DOCTYPE svg PUBLIC "-//W3C//DTD SVG 1.1//EN" "http://www.w3.org/Graphics/SVG/1.1/DTD/svg11.dtd"><svg t="1547609805947" class="icon" style="" viewBox="0 0 1024 1024" version="1.1" xmlns="http://www.w3.org/2000/svg" p-id="12239" xmlns:xlink="http://www.w3.org/1999/xlink" width="200" height="200"><defs><style type="text/css"></style></defs><path d="M89.7 714c-10.3 0-18.6 8.3-18.6 18.6v28.7c0 10.3 8.3 18.6 18.6 18.6s18.6-8.3 18.6-18.6v-28.7c0-10.2-8.4-18.6-18.6-18.6zM958.9 554.9C954.4 311.3 755 114.5 510.4 114.5S66.4 311.3 61.9 554.9c0 0.7-0.2 1.4-0.2 2.1v88.7c0 15.4 12.5 27.9 27.9 27.9 15.4 0 27.9-12.5 27.9-27.9v-82.5c0-216.6 176.2-392.8 392.8-392.8s392.8 176.2 392.8 392.8v82.5c0 15.4 12.5 27.9 27.9 27.9 15.4 0 27.9-12.5 27.9-27.9V557c0.2-0.7 0-1.4 0-2.1zM931.1 714c-10.3 0-18.6 8.3-18.6 18.6v28.7c0 10.3 8.3 18.6 18.6 18.6s18.6-8.3 18.6-18.6v-28.7c0-10.2-8.3-18.6-18.6-18.6z" fill="#707070" p-id="12240"></path><path d="M314.2 585h-45c-26.5 0-48.8 18.5-54.4 43.4-45.6 17.9-72.2 59.9-72.2 118.3s26.6 100.5 72.2 118.3c5.6 24.8 27.9 43.4 54.4 43.4h45c30.8 0 55.8-25 55.8-55.8V640.9c0.1-30.9-24.9-55.9-55.8-55.9zM198.4 746.7c0-39 15.5-57 33.9-65.3v130.7c-18.4-8.3-33.9-26.4-33.9-65.4z m115.8 105.9h-44.6V645.7c0-1.3-0.1-2.5-0.4-3.7v-1.1h45v211.7zM804.6 628.4c-5.7-24.8-27.9-43.4-54.5-43.4h-45c-30.8 0-55.8 25-55.8 55.8v211.7c0 30.8 25 55.8 55.8 55.8h45c26.6 0 48.8-18.5 54.5-43.4 45.5-17.9 72.2-59.9 72.2-118.3-0.1-58.3-26.7-100.3-72.2-118.2z m-99.5 224.2V640.9h45v1.1c-0.3 1.2-0.4 2.5-0.4 3.8v206.9h-44.6z m81.9-40.5V681.4c18.4 8.3 33.9 26.4 33.9 65.3 0 39-15.5 57.1-33.9 65.4z" fill="#707070" p-id="12241"></path></svg>