<?xml version="1.0" standalone="no"?><!DOCTYPE svg PUBLIC "-//W3C//DTD SVG 1.1//EN" "http://www.w3.org/Graphics/SVG/1.1/DTD/svg11.dtd"><svg t="1547609538575" class="icon" style="" viewBox="0 0 1024 1024" version="1.1" xmlns="http://www.w3.org/2000/svg" p-id="8554" xmlns:xlink="http://www.w3.org/1999/xlink" width="200" height="200"><defs><style type="text/css"></style></defs><path d="M689.9 101.6c-54.5-23.7-114.6-37-177.8-37-43.1 0-84.8 6.3-124.2 17.6l294.3 361.4 7.7-342zM347.5 96c-55.3 21.8-107.2 54.9-151.8 99.6-30.5 30.5-55.5 64.4-75.4 100.3L584 343.4 347.5 96zM101.6 334.2c-23.8 54.4-37 114.6-37 177.8 0 43.1 6.2 84.8 17.6 124.2l361.4-294.4-342-7.6zM96 676.5c21.7 55.3 54.9 107.1 99.6 151.9 30.4 30.5 64.3 55.5 100.3 75.3L343.4 440 96 676.5z m238.1 245.9c54.5 23.7 114.6 37 177.9 37 43.1 0 84.7-6.3 124.2-17.7L341.9 580.3l-7.8 342.1z m342.4 5.5c55.3-21.8 107.2-54.9 151.9-99.6 30.5-30.5 55.5-64.3 75.3-100.3L440 680.6l236.5 247.3z m265.2-540.1L580.3 682.1l342.1 7.7c23.7-54.5 37-114.6 37-177.9 0-43-6.3-84.7-17.7-124.1zM928 347.5c-21.8-55.3-54.9-107.1-99.6-151.9-30.5-30.5-64.3-55.5-100.3-75.3L680.6 584 928 347.5z" fill="#707070" p-id="8555"></path></svg>