<?xml version="1.0" standalone="no"?><!DOCTYPE svg PUBLIC "-//W3C//DTD SVG 1.1//EN" "http://www.w3.org/Graphics/SVG/1.1/DTD/svg11.dtd"><svg t="1547685312632" class="icon" style="" viewBox="0 0 1024 1024" version="1.1" xmlns="http://www.w3.org/2000/svg" p-id="14252" xmlns:xlink="http://www.w3.org/1999/xlink" width="200" height="200"><defs><style type="text/css"></style></defs><path d="M903.51 109.87h-784a60 60 0 0 0-60 60v335h904v-335a60 60 0 0 0-60-60zM59.51 691.87a60 60 0 0 0 60 60h362v147h-95a30 30 0 1 0 0 60h250a30 30 0 0 0 0-60h-95v-147h362a60 60 0 0 0 60-60v-126h-904z" fill="#88d278" p-id="14253"></path></svg>