<?xml version="1.0" standalone="no"?><!DOCTYPE svg PUBLIC "-//W3C//DTD SVG 1.1//EN" "http://www.w3.org/Graphics/SVG/1.1/DTD/svg11.dtd"><svg t="1547735799237" class="icon" style="" viewBox="0 0 1024 1024" version="1.1" xmlns="http://www.w3.org/2000/svg" p-id="21624" xmlns:xlink="http://www.w3.org/1999/xlink" width="200" height="200"><defs><style type="text/css"></style></defs><path d="M951.057386 223.321676c-11.955909-17.225847-34.652375-17.225847-42.110356-17.225847-11.309837 0-20.477706 9.168893-20.477707 20.477707 0 11.309837 9.167869 20.477706 20.477707 20.477706 4.117043 0 6.719759 0.337882 8.24842 0.651191 0.175084 2.160398 0.175084 5.319084 0.175085 7.633065v510.193867c0 4.575744-3.778137 8.297567-8.423505 8.297566H115.144096c-4.644344 0-8.422481-3.721823-8.422481-8.297566V255.335498c0-4.567552 3.778137-8.284256 8.422481-8.284256 11.309837 0 20.477706-9.167869 20.477706-20.477706 0-11.308813-9.167869-20.477706-20.477706-20.477707-27.227159 0-49.377894 22.088278-49.377894 49.239669v510.193867c0 27.157534 22.150735 49.25298 49.377894 49.252979H908.94703c27.227159 0 49.378918-22.094421 49.378917-49.252979V255.335498c-0.001024-9.597901-0.001024-21.543571-7.268561-32.013822z" fill="#707070" p-id="21625"></path><path d="M285.398819 643.598957c58.486378 0 106.068376-47.128418 106.068377-105.056778S343.885197 433.484378 285.398819 433.484378c-58.494569 0-106.082711 47.128418-106.08271 105.056777s47.588142 105.057802 106.08271 105.057802z m0-169.159166c35.903563 0 65.112963 28.755819 65.112964 64.101364s-29.209401 64.101365-65.112964 64.101365c-35.911754 0-65.127298-28.755819-65.127297-64.101365s29.215544-64.101365 65.127297-64.101364zM724.665078 433.484378c-58.08911 0-105.348585 47.128418-105.348585 105.056777s47.258451 105.056778 105.348585 105.056778c58.082967 0 105.335274-47.128418 105.335274-105.056778s-47.252308-105.056778-105.335274-105.056777z m0 169.159166c-35.506295 0-64.393172-28.755819-64.393172-64.101365s28.886877-64.101365 64.393172-64.101364c35.499128 0 64.379861 28.755819 64.379861 64.101364s-28.880733 64.101365-64.379861 64.101365zM279.441855 332.503688h454.949109l75.742941-92.999504c7.1416-8.768554 5.822836-21.667461-2.946742-28.809062s-21.666437-5.82386-28.810085 2.945718l-63.450174 77.906411H300.80727l-53.502104-76.691059c-6.470955-9.275377-19.23471-11.548403-28.511111-5.078471-9.275377 6.470955-11.549426 19.235734-5.078471 28.511111l65.726271 94.214856z" fill="#707070" p-id="21626"></path><path d="M308.593917 247.051242h396.242597c11.309837 0 20.477706-9.167869 20.477707-20.477706s-9.167869-20.477706-20.477707-20.477707H308.593917c-11.309837 0-20.477706 9.167869-20.477706 20.477707s9.167869 20.477706 20.477706 20.477706z" fill="#707070" p-id="21627"></path></svg>