<?xml version="1.0" standalone="no"?><!DOCTYPE svg PUBLIC "-//W3C//DTD SVG 1.1//EN" "http://www.w3.org/Graphics/SVG/1.1/DTD/svg11.dtd"><svg t="1547735962884" class="icon" style="" viewBox="0 0 1024 1024" version="1.1" xmlns="http://www.w3.org/2000/svg" p-id="24566" xmlns:xlink="http://www.w3.org/1999/xlink" width="200" height="200"><defs><style type="text/css"></style></defs><path d="M348.97532213 852.63577428c-64.35184654 0-125.27159459-24.02468937-172.4629487-69.49999426-48.04937876-46.33332948-75.50616659-108.11110217-77.22221584-175.03702254-3.43209849-137.28393923 106.39505292-252.25923839 243.67899219-255.69133687 137.28393923-2.57407386 252.25923839 106.39505292 255.69133688 243.67899219 1.71604925 66.92592039-23.16666475 129.56171766-68.64196964 178.46912103-46.33332948 48.04937876-108.11110217 75.50616659-175.03702256 77.22221584-1.71604925 0.85802462-3.43209849 0.85802462-6.00617233 0.85802461z m0.85802461-465.90736887h-5.14814771c-119.26542222 2.57407386-213.64813046 102.10492982-211.0740566 221.37035207 2.57407386 119.26542222 102.10492982 214.50615507 221.37035203 211.07405661 119.26542222-2.57407386 213.64813046-102.10492982 211.07405663-221.37035206-3.43209849-116.69134836-99.53085597-211.0740566-216.22220435-211.07405662z" p-id="24567" fill="#707070"></path><path d="M352.40742061 752.2468937c-9.43827083 0-16.30246778-6.86419697-16.30246778-16.30246779v-14.58641855c0-9.43827083 6.86419697-17.16049241 16.30246778-17.16049239 9.43827083 0 16.30246778 6.86419697 16.30246778 16.30246777v14.58641856c0.85802462 8.5802462-6.86419697 16.30246778-16.30246778 17.1604924zM346.40124827 507.70987691c-9.43827083 0-16.30246778-6.86419697-16.30246778-16.30246779v-16.30246778c0-9.43827083 6.86419697-17.16049241 16.30246778-17.16049243 8.5802462 0 17.16049241 6.86419697 17.16049239 16.30246779v16.3024678c0 9.43827083-7.72222158 17.16049241-17.16049239 17.16049241 0.85802462 0 0 0 0 0z" p-id="24568" fill="#707070"></path><path d="M346.40124827 726.50615507c-38.61110791 0-64.35184654-24.02468937-72.07406812-31.74691093-6.00617233-6.86419697-6.00617233-17.16049241 0-23.16666475 6.86419697-6.00617233 17.16049241-6.00617233 23.16666478 0 4.29012309 4.29012309 24.88271399 24.02468937 54.05555107 21.45061551 12.87036929-0.85802462 38.61110791-8.5802462 44.61728026-26.59876323 3.43209849-11.15432006-0.85802462-25.7407386-9.43827085-35.17900945-10.29629546-12.01234468-25.7407386-13.72839391-43.75925563-15.44444315-21.4506155-2.57407386-45.4753049-5.14814772-61.77777265-26.59876324-13.72839391-18.01851702-18.01851702-43.75925563-9.43827083-64.35184654 12.01234468-30.88888633 47.19135413-43.75925563 75.50616659-42.901231 33.46296019 1.71604925 54.91357571 22.30864012 61.77777267 31.74691096 6.00617233 6.86419697 5.14814772 17.16049241-1.71604923 23.16666474-6.86419697 6.00617233-17.16049241 5.14814772-23.16666475-1.71604924-3.43209849-4.29012309-17.16049241-18.87654164-37.75308331-19.73456626-16.30246778-0.85802462-36.89505866 6.86419697-42.90123101 21.4506155-3.43209849 9.43827083-1.71604925 23.16666475 5.14814772 31.74691097 7.72222158 10.29629546 19.73456627 12.01234468 39.46913251 13.72839391 20.59259088 2.57407386 46.33332948 5.14814772 65.20987117 26.59876323 16.30246778 18.87654164 23.16666475 45.4753049 16.30246779 66.92592041-10.29629546 32.60493557-45.4753049 47.19135413-72.93209274 49.76542795-4.29012309 0.85802462-7.72222158 0.85802462-10.29629544 0.85802461zM907.54934999 832.04318339h-334.62960194c-9.43827083 0-16.30246778-7.72222158-16.30246782-16.3024678s7.72222158-16.30246778 16.30246782-16.30246777h334.62960194c9.43827083 0 16.30246778 7.72222158 16.30246778 16.30246777s-6.86419697 16.30246778-16.30246778 16.3024678zM907.54934999 736.80245053H640.70369303c-9.43827083 0-16.30246778-7.72222158-16.30246777-16.30246779 0-9.43827083 7.72222158-16.30246778 16.30246777-16.30246777h266.84565696c9.43827083 0 16.30246778 7.72222158 16.30246778 16.30246777 0.85802462 8.5802462-6.86419697 16.30246778-16.30246778 16.30246779zM907.54934999 641.56171766H657.86418548c-9.43827083 0-16.30246778-7.72222158-16.30246782-16.30246777 0-9.43827083 7.72222158-16.30246778 16.30246782-16.30246779h249.68516451c9.43827083 0 16.30246778 7.72222158 16.30246778 16.30246779 0.85802462 8.5802462-6.86419697 16.30246778-16.30246778 16.30246777zM907.54934999 546.32098481h-257.4073861c-9.43827083 0-16.30246778-7.72222158-16.3024678-16.30246779 0-9.43827083 7.72222158-16.30246778 16.3024678-16.30246777h257.4073861c9.43827083 0 16.30246778 7.72222158 16.30246778 16.30246777 0.85802462 8.5802462-6.86419697 16.30246778-16.30246778 16.30246779zM907.54934999 451.08025195h-303.74071561c-9.43827083 0-16.30246778-7.72222158-16.30246779-16.30246778 0-9.43827083 7.72222158-16.30246778 16.30246779-16.30246779h303.74071561c9.43827083 0 16.30246778 7.72222158 16.30246778 16.30246779 0.85802462 8.5802462-6.86419697 16.30246778-16.30246778 16.30246778zM907.54934999 355.83951909h-303.74071561c-9.43827083 0-16.30246778-7.72222158-16.30246779-16.30246778 0-9.43827083 7.72222158-16.30246778 16.30246779-16.30246778h303.74071561c9.43827083 0 16.30246778 7.72222158 16.30246778 16.30246778 0.85802462 8.5802462-6.86419697 16.30246778-16.30246778 16.30246778z" p-id="24569" fill="#707070"></path><path d="M511.14197538 300.06791877H160.20990565c-9.43827083 0-16.30246778-7.72222158-16.30246778-16.3024678 0-9.43827083 7.72222158-16.30246778 16.30246778-16.30246778h350.93206973c9.43827083 0 16.30246778 7.72222158 16.30246778 16.30246778s-6.86419697 16.30246778-16.30246778 16.3024678z" p-id="24570" fill="#707070"></path><path d="M511.14197538 203.96916128H160.20990565c-9.43827083 0-16.30246778-7.72222158-16.30246778-16.30246779s7.72222158-16.30246778 16.30246778-16.30246777h350.93206973c9.43827083 0 16.30246778 7.72222158 16.30246778 16.30246777s-6.86419697 16.30246778-16.30246778 16.30246779z" p-id="24571" fill="#707070"></path></svg>