<?xml version="1.0" standalone="no"?><!DOCTYPE svg PUBLIC "-//W3C//DTD SVG 1.1//EN" "http://www.w3.org/Graphics/SVG/1.1/DTD/svg11.dtd"><svg t="1547685332946" class="icon" style="" viewBox="0 0 1024 1024" version="1.1" xmlns="http://www.w3.org/2000/svg" p-id="14492" xmlns:xlink="http://www.w3.org/1999/xlink" width="200" height="200"><defs><style type="text/css"></style></defs><path d="M452.784852 149.116179l-14.163581 380.882754c20.60427 8.501628 40.687678 8.501628 60.260455 0l-14.419407-380.882754h-31.677467z m311.605947 739.358171l-156.832931-469.472417h3.861957l156.832932 466.383056-3.861958 3.089361z m-0.77055 64.899103L587.986113 422.097434l10.561544-18.801205-3.093455-32.449039 12.877285 39.919174-10.55745 18.797112 168.93762 502.69303 0.771573-43.780109 24.210402 70.052472-3.866051 0.769527L782.679327 947.1978l-19.059078 6.175653zM414.414963 591.809697c-5.409197 2.571568-5.919826 5.40408-1.548263 8.752338 4.638647 3.347235 7.983835 0.773619 10.56359-7.212262 2.569522-7.468089-0.515746-13.132088-9.275247-16.993023-9.010211-3.605108-15.4509-2.066055-19.313881 4.888334-6.695492 10.564613-9.785877 22.664186-9.785877 36.31202 0 13.648858-1.547239 28.586059-4.637624 45.324278-2.058892 8.501628-5.92085 11.846816-12.100596 10.048867-5.924943-1.806135-7.212262-4.121877-3.606131-7.217378-0.515746-4.89038-3.090385-6.954389-7.722892-6.43762-4.381797 0.773619-5.15337 4.894474-2.062985 11.848863 7.467065 16.996093 17.253966 18.027585 29.358655 3.088338 6.436596-8.241708 9.526981-21.889543 9.271154-41.202401-0.25992-19.316951 2.573615-34.507932 7.983835-45.581128 1.543146-3.606131 5.148253-4.121877 11.073196-1.548262 5.664 2.576685 6.434549 4.381797 1.803066 5.929036z m110.22031 0c-4.63353-1.548262-3.860934-3.352351 1.803066-5.928013 5.924943-2.574638 9.7869-2.058892 11.588943 1.548262 5.149277 11.073196 7.467065 26.264177 7.213285 45.581128-0.260943 19.312858 3.090385 32.960693 9.524934 41.202401 12.622482 16.486486 22.407336 15.456017 29.360701-3.088338 3.090385-6.954389 2.057869-11.075243-2.575661-11.848862-4.89345-0.51677-7.212262 1.547239-7.212262 6.437619 3.606131 3.094478 2.318812 5.411243-3.861958 7.217379-5.92392 1.797949-9.785877-1.548262-11.072173-10.048867-3.606131-16.738219-5.409197-31.67542-5.409197-45.324278 0-13.647835-3.090385-25.747407-9.015327-36.312021-4.632507-6.954389-11.329023-8.494465-20.344351-4.888334-9.011234 3.860934-12.104689 9.525957-9.011234 16.993023 2.314719 7.985882 5.919826 10.559497 10.041704 7.212262 4.378727-3.348258 3.862981-6.181793-1.03047-8.753361z m-28.843932-211.946156c32.704866 0.515746 57.942667 11.584849 75.196633 33.218565 17.251919 21.630646 23.954575 48.15986 20.088524 79.836303 0 6.1777 0.25992 13.647835 0.515746 22.400173 0.514723 8.759501 4.637624 13.904685 12.104689 15.452947-33.221636 14.166651-44.293809 33.992185-33.221635 60.005652 11.07422 25.753547 25.237801 36.055171 42.491766 30.386054-10.302647 12.104689-13.647835 22.920012-10.562566 32.450063 2.835581 9.783831 5.41329 16.479323 7.473205 20.599154 11.587919 22.407336 6.696516 59.232033-14.424524 109.966531-21.115923 50.993394-62.575174 74.682933-124.383892 71.851444 4.89345-2.062985 7.467065-6.693446 7.467065-13.647834 0-38.634926 3.867074-66.701145 11.588943-84.216054 7.983835-17.253966 14.163581-38.369889 18.541285-62.836117-27.040866 8.502651-54.081733 8.502651-80.604806 0 4.377704 23.950482 10.55745 44.808532 18.025539 62.066591 7.471159 17.510816 11.844769 45.842071 12.877285 84.98558 0 7.978718 2.573615 12.615319 7.471159 13.647834-75.972299 1.801019-121.298624-22.147416-136.232755-72.625064-14.679327-50.219775-16.22759-86.785575-4.121877-109.192911 1.547239-4.118807 3.860934-10.815323 7.212262-20.599154 3.345188-9.530051 0.77055-20.345374-7.212262-32.450063 15.71082 6.693446 29.103852-3.090385 40.171931-28.845978 10.818393-26.00528-0.255827-46.347584-33.991162-61.545728 7.467065-1.548262 11.849886-6.694469 13.132089-15.452947 1.287319-8.752338 1.803066-16.222473 1.803065-22.400173-5.40408-31.676443-0.771573-58.721403 13.907755-80.867795 14.94027-22.403243 41.97602-33.734312 81.120552-33.734312l7.729032-229.200123h-8.499581c0-63.092967 9.7869-94.510514 28.842908-94.510514 13.133112 0 20.345374 7.728008 21.88852 23.173793 1.547239 15.198144 2.318812 39.145555 2.318812 71.336721h-6.952343l8.238638 230.747362zM428.833347 83.449597c7.983835 0 12.104689 3.347235 12.104689 10.559497 0 7.468089-4.120854 11.326976-12.104689 11.326976-7.207146 0-10.55745-3.348258-10.55745-10.044773 0-7.978718 3.350304-11.841699 10.55745-11.8417z m0 33.217543c7.473205 0 11.330046 3.605108 11.330046 11.073196 0 9.275247-4.372587 12.365632-12.876262 10.04375-7.977695 2.321882-12.100596-0.768503-12.100595-10.04375-0.001023-7.467065 4.6366-11.073196 13.646811-11.073196z m78.285994-46.096875c9.276271 0 13.653975 3.605108 13.653975 11.33107-2.059915 7.470135-6.440689 11.334139-13.653975 11.334139-6.951319 0-10.55131-3.864004-10.55131-11.334139 0.001023-7.724938 3.599991-11.33107 10.55131-11.33107z m3.096525 29.359678c7.468089 0 11.328 3.862981 11.327999 11.33414 0 7.982812-3.859911 12.105712-11.327999 12.105712-7.467065 0-11.334139-4.122901-11.33414-12.105712 0-7.471159 3.867074-11.334139 11.33414-11.33414z m-56.656371 49.703006h5.406126l-15.19712 567.590086h-5.919826l15.71082-567.590086z m28.844955-0.51677h-4.637624l15.966647 568.105832h5.925966l-17.254989-568.105832z m-20.350491 0l-3.860934 569.396222h6.696516l2.317788-569.396222h-5.15337z m12.622482 0h-4.378727l5.92085 569.396222h6.185886l-7.728009-569.396222z m-7.469112 706.914248h3.861958v100.949157l-2.319835 3.090385-1.543146-3.090385v-100.949157h0.001023z" p-id="14493" fill="#88d278"></path></svg>