<?xml version="1.0" standalone="no"?><!DOCTYPE svg PUBLIC "-//W3C//DTD SVG 1.1//EN" "http://www.w3.org/Graphics/SVG/1.1/DTD/svg11.dtd"><svg t="1547685358741" class="icon" style="" viewBox="0 0 1152 1024" version="1.1" xmlns="http://www.w3.org/2000/svg" p-id="15428" xmlns:xlink="http://www.w3.org/1999/xlink" width="225" height="200"><defs><style type="text/css"></style></defs><path d="M1062.770314 200.034214H265.595975L589.025409 68.266667c17.775094-7.213082 26.276226-27.564277 19.063144-45.339371S580.524277-3.348931 562.749182 3.864151L79.859119 200.678239c-44.952956 5.152201-79.859119 43.278491-79.859119 89.519497V933.836478c0 49.847547 40.315975 90.163522 90.163522 90.163522h972.606792c49.847547 0 90.163522-40.315975 90.163522-90.163522V290.197736c0-49.718742-40.315975-90.163522-90.163522-90.163522z m20.608805 733.802264c0 11.334843-9.273962 20.608805-20.608805 20.608805H90.163522c-11.334843 0-20.608805-9.273962-20.608805-20.608805V290.197736c0-11.334843 9.273962-20.608805 20.608805-20.608805h972.606792c11.334843 0 20.608805 9.273962 20.608805 20.608805V933.836478zM758.404025 735.99195zM1005.194465 735.99195z" fill="#88d278" p-id="15429"></path><path d="M964.10566 694.77434H799.621635c-22.798491 0-41.21761 18.419119-41.21761 41.21761s18.419119 41.21761 41.21761 41.21761h164.484025c22.798491 0 41.21761-18.419119 41.21761-41.21761s-18.547925-41.21761-41.21761-41.21761zM964.10566 529.259874H799.621635c-22.798491 0-41.21761 18.419119-41.21761 41.21761s18.419119 41.21761 41.21761 41.21761h164.484025c22.798491 0 41.21761-18.419119 41.21761-41.21761-0.128805-22.798491-18.547925-41.21761-41.21761-41.21761zM711.776604 607.573333C709.458113 441.930063 574.47044 308.359245 408.183145 308.359245 240.478994 308.359245 104.589686 444.377358 104.589686 612.081509S240.478994 915.803774 408.31195 915.803774h3.992956l2.5761 2.5761 2.576101-2.5761c163.453585-5.023396 294.448302-139.109434 294.448302-303.722265v-3.992956l0.25761-0.25761-0.386415-0.25761z m-72.774843 43.793711c-2.060881 12.107673-5.023396 23.828931-8.887547 35.292579L333.605031 390.021635c11.463648-3.864151 23.313711-6.826667 35.292579-8.887547l270.104151 270.232956z m-15.971824-132.540377l-121.463145-121.463145c54.226918 23.571321 97.891824 67.107421 121.463145 121.463145z m-364.260629-87.072202l329.740881 329.740881c-7.985912 9.660377-16.744654 18.67673-26.276227 26.920251L231.849057 458.030692c3.477736-3.992956 7.084277-7.857107 10.819622-11.592453 5.152201-5.152201 10.562013-10.046792 16.100629-14.683774z m-78.055849 135.889309L177.750943 570.606289c2.447296-13.395723 6.053836-26.533836 10.690818-39.285534l300.502138 300.502138c-11.077233 4.121761-22.540881 7.341887-34.390943 9.660377L180.713459 567.643774z m7.213082 123.781635l141.041509 141.041509c-65.561761-23.700126-117.470189-75.608553-141.041509-141.041509z" fill="#88d278" p-id="15430"></path><path d="M981.23673 365.033459m-56.674214 0a56.674214 56.674214 0 1 0 113.348427 0 56.674214 56.674214 0 1 0-113.348427 0Z" fill="#88d278" p-id="15431"></path></svg>